<?xml version="1.0" encoding="UTF-8"?>
<svg version="1.1" viewBox="0 0 1080 1080" width="1080" height="1080" xmlns="http://www.w3.org/2000/svg">
<path transform="translate(0)" d="m0 0h1080v1080h-1080z" fill="#58AE9A"/>
<path transform="translate(458,381)" d="m0 0h53l1 1 1 105 3 10 6 8 7 4 5 2h12l10-4 7-7 3-6 1-6 1-30 2-2h5l2 3v29l-4 13-6 8-8 7-10 4h-18l-9-4-6-4-7-8-4-8-1-5-1-101-39-1 1 15 6 2 1 5-3 3h-5v28l6 1 2 2-1 5-6 2-1 9h5l3 3-1 5-7 1 2 28 5 2 1 5-4 2 4 10 7 2 1 5-1 5 12 13 6 4 8-1 1 1v7l5 1 7 2 1-3h5l2 3v3h26l2-1 3-5 10 2 7-3 1-6 1-1h5 4l9-7 8-10-1-8 2-2h6l1-5 1-1v-5l-2-2v-5l1-1h5l1-29-6-1-1-1v-5l3-2h4v-10h-5l-2-2v-5l3-2h4v-28l-6-1-1-1v-5l2-2h5v-16h-39v28l-3 3-5-1-1-2v-34l2-2h53l2 3v21h14l10 4 6 7 3 6v12l-4 8-8 7-6 2h-15v10h13l9 3 7 6 4 9v10l-4 9-8 7-7 2-17 1-7 18 11 11 4 9v11l-5 10-8 6-4 1h-11l-7-3-8-7-4-4-6 1-13 5-1 19-4 8-8 7-5 2h-11l-7-3-6-5-4-7-1-4v-18l-9-2-6-3-5-1-2 4-8 7-8 4h-11l-8-3-8-9-2-7v-7l3-8 7-8 5-5-1-5-5-13-1-1-16-1-9-3-6-5-4-7-1-9 2-9 8-9 6-3 5-1h12v-10h-14l-10-4-6-7-2-4-1-9 2-9 8-9 5-3 5-1h13v-20l1-3z" fill="#001A15"/>
<path transform="translate(333,647)" d="m0 0 7 1 3 4 12 34 3 9 4-9 11-32 4-6 2-1h6l4 4v60l-2 2-6-1-1-2v-18l-1-26-7 20-3 9-6 16-2 2h-5l-3-4-14-41v-3h-2v45l-3 3-5-1-2-3v-52l2-7z" fill="#001A15"/>
<path transform="translate(501,656)" d="m0 0h11l10 5 5 6 3 6v13l-5 10-8 6-7 2-11-1-7-4-5-5-4-8v-12l3-7 5-6z" fill="#58AE9A"/>
<path transform="translate(503,646)" d="m0 0h7l11 3 10 7 6 9 3 9v12l-4 11-9 10-9 5-4 1h-15l-10-4-8-7-4-5-4-11v-11l2-8 6-9 9-8zm-2 10-10 5-7 9-1 4v12l4 8 5 5 7 4 11 1 9-3 6-5 5-10v-13l-5-9-6-5-7-3z" fill="#001A15"/>
<path transform="translate(683,646)" d="m0 0h8l10 3 8 5 1 6-3 3-5-1-8-4-3-1h-9l-9 4-5 5-3 4-1 4v12l4 8 7 6 9 3 10-1 8-4 5-1 3 3-1 5-5 4-5 3-4 1h-16l-10-4-9-7-6-11-1-5v-12l3-9 4-6 7-7 8-4z" fill="#001A15"/>
<path transform="translate(722,647)" d="m0 0h28l3 4-1 4-1 1-21 1-1 18h22l2 2v5l-2 2-21 1-1 18h21l3 3-1 5-1 1-27 1-5-3v-59z" fill="#001A15"/>
<path transform="translate(552,647)" d="m0 0h28l3 3-1 5-1 1-22 1v18h22l2 2v5l-2 2-22 1v24l-2 4h-6l-2-3v-60z" fill="#001A15"/>
<path transform="translate(595,647)" d="m0 0h28l3 4-2 5-21 1-1 18h21l3 3-1 5-1 1-21 1-1 24-2 4h-6l-2-2v-61z" fill="#001A15"/>
<path transform="translate(400,647)" d="m0 0h5l4 6 9 22 5-10 7-16 2-2 5 1 2 5-5 12-9 21-1 3-1 22-2 2h-5l-3-5-1-21-8-19-6-13v-6z" fill="#001A15"/>
<path transform="translate(526,568)" d="m0 0h28l1 1v12l-3 7-6 5-8 1-7-3-4-5-1-2z" fill="#58AE9A"/>
<path transform="translate(637,647)" d="m0 0h5l3 4v58l-3 4h-5l-2-2v-62z" fill="#001A15"/>
<path transform="translate(608,534)" d="m0 0 4 1 7 7 2 3 1 8-2 6-5 5-5 2-8-1-6-4-6-6 1-4 8-6z" fill="#58AE9A"/>
<path transform="translate(470,534)" d="m0 0 4 2 7 8 10 9-2 4-8 7-5 2-9-1-7-6-1-3v-9l3-5 4-5z" fill="#58AE9A"/>
<path transform="translate(625,470)" d="m0 0h15l6 4 3 4 1 8-3 7-4 4-5 2h-14z" fill="#58AE9A"/>
<path transform="translate(440,470)" d="m0 0h15l2 28-1 1h-13l-8-4-4-6v-10l4-6z" fill="#58AE9A"/>
<path transform="translate(625,414)" d="m0 0h15l5 3 4 5v12l-6 7-3 1-14 1-1-1z" fill="#58AE9A"/>
<path transform="translate(440,414)" d="m0 0h15v28h-15l-6-4-3-5v-10l5-7z" fill="#58AE9A"/>
<path transform="translate(571,429)" d="m0 0 4 1 2 2v11l-2 3h-5l-2-2v-12z" fill="#001A15"/>
</svg>
