<?xml version="1.0" standalone="no"?>
<!DOCTYPE svg PUBLIC "-//W3C//DTD SVG 20010904//EN"
 "http://www.w3.org/TR/2001/REC-SVG-20010904/DTD/svg10.dtd">
<svg version="1.0" xmlns="http://www.w3.org/2000/svg"
 width="400.000000pt" height="400.000000pt" viewBox="0 0 400.000000 400.000000"
 preserveAspectRatio="xMidYMid meet">

<g transform="translate(0.000000,400.000000) scale(0.100000,-0.100000)"
fill="#000000" stroke="none">
<path d="M1690 2545 c0 -45 0 -45 -36 -45 -27 0 -43 -7 -65 -31 -31 -34 -35
-54 -18 -92 13 -29 41 -45 84 -49 45 -4 39 -32 -7 -36 -43 -4 -88 -48 -88 -89
0 -40 51 -83 98 -83 37 0 41 -3 52 -36 11 -31 10 -38 -8 -57 -45 -48 -45 -100
0 -139 30 -26 69 -22 114 10 32 23 44 26 65 18 22 -7 28 -17 32 -53 6 -59 38
-93 88 -93 48 0 89 44 89 96 0 29 5 36 33 47 30 13 34 12 65 -15 40 -35 81
-36 118 -4 37 31 38 80 1 127 -24 32 -25 38 -15 67 11 27 17 32 46 32 90 0
134 85 74 143 -16 15 -41 27 -60 29 -23 2 -32 7 -32 20 0 14 8 18 34 18 44 0
86 38 86 79 0 44 -44 91 -85 91 -33 0 -34 2 -37 43 l-3 42 -105 0 -105 0 -3
-67 c-3 -63 -1 -68 18 -68 17 0 20 6 20 50 l0 50 70 0 c67 0 70 -1 70 -24 0
-13 -7 -26 -15 -30 -8 -3 -15 -10 -15 -16 0 -5 7 -10 15 -10 23 0 21 -105 -2
-115 -17 -6 -17 -7 0 -19 9 -7 17 -19 17 -26 0 -7 -8 -19 -17 -26 -17 -12 -17
-13 0 -19 23 -10 25 -115 2 -115 -18 0 -19 -12 -4 -27 8 -8 5 -17 -12 -34 -13
-13 -24 -32 -24 -43 -2 -24 -50 -66 -76 -66 -10 0 -19 -7 -19 -15 0 -14 -16
-19 -52 -16 -9 1 -19 -3 -23 -9 -8 -14 -105 -13 -105 1 0 7 -10 9 -25 5 -18
-5 -30 -1 -42 14 -10 11 -25 20 -34 20 -26 0 -78 58 -72 81 4 12 0 19 -10 19
-18 0 -29 24 -21 45 3 8 -1 22 -10 30 -22 22 -22 105 -1 105 8 0 15 6 15 14 0
8 -7 16 -15 20 -8 3 -15 12 -15 21 0 8 7 15 15 15 8 0 15 7 15 15 0 8 -7 15
-15 15 -11 0 -15 12 -15 50 0 36 4 52 15 56 8 4 15 12 15 20 0 8 -7 14 -15 14
-9 0 -15 9 -15 25 0 24 2 25 69 25 l69 0 4 -192 c3 -183 4 -195 26 -226 63
-88 187 -81 233 14 25 52 24 159 -1 159 -12 0 -16 -16 -18 -71 -3 -64 -6 -74
-33 -100 -44 -42 -101 -40 -140 4 l-29 32 0 210 0 210 -105 0 -105 0 0 -45z
m-2 -133 c3 -52 3 -52 -27 -52 -60 0 -83 71 -31 97 43 22 55 13 58 -45z m687
46 c19 -9 25 -19 25 -44 0 -35 -21 -54 -59 -54 -19 0 -21 6 -21 55 0 60 7 65
55 43z m-687 -255 c3 -50 2 -53 -20 -53 -65 0 -95 81 -38 103 41 16 55 4 58
-50z m686 47 c21 -8 26 -16 26 -44 0 -39 -20 -56 -65 -56 -27 0 -27 3 -16 103
1 10 25 9 55 -3z m-569 -312 c-3 -8 -17 -20 -31 -27 -56 -25 -96 39 -53 85
l23 25 33 -34 c21 -21 32 -39 28 -49z m493 24 c4 -39 -35 -70 -66 -53 -42 22
-44 36 -9 74 28 31 34 34 52 22 11 -7 21 -26 23 -43z m-275 -72 c26 0 28 -2
25 -37 -2 -31 -8 -39 -30 -47 -38 -13 -68 14 -68 62 0 31 2 34 23 28 12 -3 35
-6 50 -6z"/>
<path d="M2107 2404 c-4 -4 -7 -18 -7 -31 0 -17 6 -23 21 -23 16 0 20 5 17 27
-3 26 -18 39 -31 27z"/>
<path d="M1843 1600 c-34 -8 -79 -52 -89 -88 -16 -60 36 -141 101 -158 32 -8
87 11 115 41 31 32 39 114 16 150 -31 47 -86 68 -143 55z m77 -45 c20 -11 31
-25 36 -49 12 -68 -16 -106 -81 -106 -35 0 -48 5 -64 26 -36 46 -24 101 27
128 35 19 46 19 82 1z"/>
<path d="M2503 1599 c-73 -21 -105 -117 -63 -186 37 -61 133 -79 175 -33 14
16 16 23 7 32 -9 9 -15 9 -24 0 -19 -19 -92 -15 -111 6 -46 50 -35 118 22 142
27 11 38 10 71 -3 39 -15 50 -13 50 7 0 29 -77 50 -127 35z"/>
<path d="M1216 1584 c-3 -9 -6 -63 -6 -120 0 -97 1 -104 20 -104 17 0 19 8 22
87 l3 86 29 -86 c22 -68 32 -87 47 -87 11 0 19 6 19 13 0 8 11 40 25 73 22 53
24 56 26 29 2 -16 2 -45 0 -63 -3 -42 15 -67 35 -51 10 8 14 39 14 109 0 114
-4 130 -35 130 -18 0 -26 -11 -44 -56 -11 -31 -21 -61 -21 -68 0 -7 -6 -21
-14 -31 -12 -17 -16 -10 -41 68 -24 76 -30 87 -50 87 -13 0 -26 -7 -29 -16z"/>
<path d="M1477 1593 c-3 -5 0 -19 6 -33 6 -14 17 -41 25 -60 8 -19 17 -57 21
-85 4 -36 11 -51 24 -53 14 -3 17 4 17 41 0 29 11 70 30 112 35 78 36 85 11
85 -13 0 -24 -14 -35 -45 -10 -25 -21 -45 -25 -45 -5 0 -16 20 -25 45 -16 41
-38 57 -49 38z"/>
<path d="M2037 1593 c-4 -3 -7 -55 -7 -113 0 -78 4 -111 13 -119 20 -16 27 -3
27 50 l0 48 42 3 c31 2 44 8 46 21 3 14 -4 17 -43 17 -46 0 -46 0 -43 33 3 30
6 32 46 35 28 2 42 8 42 18 0 10 -14 14 -58 14 -32 0 -62 -3 -65 -7z"/>
<path d="M2197 1593 c-10 -10 -8 -216 2 -232 16 -25 31 -1 31 49 l0 49 42 3
c31 2 44 8 46 21 3 14 -4 17 -42 17 -46 0 -46 0 -46 35 0 35 0 35 45 35 33 0
45 4 45 15 0 12 -13 15 -58 15 -32 0 -62 -3 -65 -7z"/>
<path d="M2350 1480 c0 -113 1 -120 20 -120 19 0 20 7 20 120 0 113 -1 120
-20 120 -19 0 -20 -7 -20 -120z"/>
<path d="M2662 1483 l3 -118 63 -3 c57 -3 63 -1 60 15 -2 13 -14 19 -46 21
-39 3 -42 5 -42 32 0 27 3 29 42 32 31 2 44 8 46 21 3 14 -4 17 -42 17 -46 0
-46 0 -46 35 0 35 0 35 45 35 33 0 45 4 45 15 0 12 -14 15 -65 15 l-66 0 3
-117z"/>
</g>
</svg>
