<?xml version="1.0" encoding="UTF-8"?>
<svg version="1.1" viewBox="0 0 2048 1082" width="938" height="496" xmlns="http://www.w3.org/2000/svg">
<path transform="translate(787,69)" d="m0 0h145l5 3 4 5 1 4v292l2 21 4 13 8 15 12 14 14 10 15 7 13 3 17 1 16-2 15-5 11-6 9-7 5-4 10-13 8-16 3-13 1-10 1-79 4-8 5-3h9l5 4 3 8v73l-2 20-4 15-7 16-9 14-11 12-9 8-15 10-20 8-14 3-10 1h-12l-17-2-14-4-15-6-14-9-10-9-9-9-7-10-7-12-6-16-3-16-1-9-1-286-116-1v48h14l6 4 3 6-1 8-5 5-6 2h-11v85h12l6 3 4 5 1 2v6l-4 6-5 3-5 1h-9l1 29 13 1 5 3 3 4 1 8-4 7-9 3h-10v40l1 20 3 21v4h8l6 3 4 5 1 2v6l-4 6-6 4h-2l5 15 8 17 2 1 3-1h10l5 4 3 7-1 6-5 7 1 6 10 13 11 12 13 13 14 11 7 5 4-1 7-5h8l6 4 3 8-2 9 16 8 13 5h4l6-8 7-3 7 2 4 4 4 12v2l26 2h31l17-1 8-2 4-13 6-5 6-1 6 3 4 5 1 4 13-4 20-9v-14l3-5 4-3h8l9 6 6-2 20-16 19-19 8-10 6-10-2-5-4-7 1-7 4-6 4-2h9l5 1 2-5 7-16 2-11-8-7-2-5 1-8 5-5 5-2 7-1 3-17 1-8v-57l-1-1-13-2-6-4-2-4v-7l3-6 5-3 11-1 3-1v-26l-13-3-6-4-3-5 1-9 5-5 6-2 10-1v-82l-1-1-13-2-6-4-2-4v-7l4-6 5-3 13-1v-45l-6-1h-109l-1 76-2 8-5 5-2 1h-7l-5-3-4-5-1-2v-94l4-8 4-3 4-1h146l6 3 4 6 1 7v57h41l12 3 15 8 11 9 8 10 8 16 3 14v15l-3 14-8 16-8 10-9 8-11 6-10 4-9 2-18 1h-22v30h42l13 4 12 6 11 9 8 9 8 15 3 11 1 7v10l-2 13-3 10-8 14-11 12-11 7-12 5-15 3-43 1-3 1-6 18-9 21-5 10-1 4 7 8 24 24 9 14 5 14 1 6v21l-4 15-7 13-11 12-7 6-14 7-13 3-16 1-17-3-16-8-8-6-12-11-7-7-7-8-4-3-6 1-21 10-27 10-1 43-2 13-4 12-7 12-10 11-10 7-13 6-13 3h-16l-12-2-13-5-9-6-10-9-7-9-7-15-3-12-1-50-10-3-19-7-22-10-5 1-30 30-15 9-12 4-18 2-16-2-14-5-11-7-7-6-8-10-7-14-3-12v-23l3-12 7-14 8-10 27-27-1-8-8-16-8-21-3-9-1-1-46-2-18-4-17-9-13-13-8-14-4-13-1-7v-14l3-15 8-16 9-11 11-9 14-7 13-3 40-1v-28l-38-2-14-3-10-4-11-7-12-12-8-14-4-13-1-8v-12l3-16 8-16 11-13 13-9 11-5 14-3h38v-61l4-8 4-3zm-52 98-10 3-11 7-8 9-4 8-2 9v13l3 11 5 8 6 7 9 6 8 3 6 1h36v-84l-1-1zm540 0-1 25v27l1 33h37l10-3 9-5 7-6 7-11 2-7v-20l-4-11-7-9-9-8-10-4-4-1zm1 165-2 5-1 57-1 11v13h40l13-4 9-6 7-8 5-10 2-9v-9l-3-13-6-10-9-9-9-5-8-2zm-542 1-11 4-9 6-7 8-5 10-2 9v12l4 13 8 11 11 8 9 3 5 1h39v-12l-2-20-1-52-1-1zm494 188-9 10-9 11-15 16-8 7-11 9-7 6 3 5 8 7 15 15 9 6 9 3h19l11-4 9-6 8-9 4-10 1-6v-13l-4-13-6-9-8-8-7-8-10-9zm-409 0-8 6-17 17-7 10-3 7-1 5v18l4 11 7 9 9 7 9 4 13 2 13-2 9-4 6-4 11-10 7-8 7-7-1-4-11-9-11-10-8-7-7-7-9-11-11-13zm163 101-1 5v34l2 10 5 9 9 10 10 6 9 3h15l12-4 10-6 7-8 5-11 1-4 1-18-1-24-1-1h-49l-21-1z" fill="#07231E"/>
<path transform="translate(413,856)" d="m0 0h10l9 5 7 10 20 57 20 59 5 13 3-1 6-14 22-65 16-45 6-10 5-5 5-3 3-1h11l8 4 6 8 2 6 1 7v160l-3 6-5 4-10 1-8-4-2-6v-58l-1-74h-3l-2 9-13 36-6 17-5 9-3 14-10 28-6 17-5 8-4 3-10 1-7-4-6-12-19-56-22-65-2-6h-3v116l-1 16-3 6-6 4-8 1-8-4-3-5-1-10v-114l1-36 3-12 6-9 7-5z" fill="#092521"/>
<path transform="translate(914,855)" d="m0 0h21l17 3 13 5 13 7 12 9 12 12 10 15 6 14 4 15 1 5v28l-4 17-5 12-7 13-8 10-11 11-10 7-15 8-17 5-13 2h-15l-16-2-16-5-16-8-13-10-9-9-10-14-7-15-4-13-2-13v-19l3-17 5-14 8-15 9-11 13-13 16-10 15-6 12-3zm-2 29-14 4-13 7-10 8-9 10-8 15-3 9-1 6v22l4 15 7 13 9 11 11 9 14 7 9 3 6 1h21l13-3 16-8 12-11 7-8 8-16 3-11v-25l-3-12-7-14-7-9-9-9-11-7-12-5-9-2z" fill="#06231E"/>
<path transform="translate(1446,855)" d="m0 0h24l16 3 13 5 13 7 10 8 4 7v10l-6 7-8 2-9-3-10-7-13-6-12-3h-23l-12 3-14 7-12 9-8 10-6 10-5 15-1 7v15l3 14 8 16 9 11 10 8 14 8 17 5h20l15-4 15-8 9-6 9-1 6 4 4 6v9l-4 6-9 8-14 8-15 5-18 3h-15l-16-2-14-4-16-8-12-8-12-12-6-7-8-14-6-15-3-14-1-7v-15l3-17 5-15 8-15 11-14 8-8 14-10 17-8 15-4z" fill="#06231E"/>
<path transform="translate(1563,857)" d="m0 0h81l6 4 3 7v8l-3 5-4 3-7 1h-32l-23 1-1 6v46l61 1 6 4 3 4 1 3v7l-3 6-6 4-62 1v54h59l8 4 4 7v7l-3 6-6 4h-83l-6-4-2-4-1-6v-160l2-11 6-7z" fill="#082520"/>
<path transform="translate(1060,857)" d="m0 0h81l6 4 3 5v9l-4 6-5 3-4 1-56 1-1 3v50h60l7 4 4 7v8l-4 6-5 3-7 1h-55l-1 70-3 9-6 5h-11l-7-6-2-7v-170l3-7 4-4z" fill="#05221D"/>
<path transform="translate(1187,857)" d="m0 0h81l6 4 3 7-1 9-4 5-4 2-7 1h-54v54h60l7 4 3 5 1 7-3 7-4 4-2 1-59 1-3 1-1 67-2 9-3 5-8 3-8-1-5-4-3-8v-172l3-6 4-4z" fill="#06231E"/>
<path transform="translate(613,856)" d="m0 0h7l6 4 4 5 12 28 13 32 7 16 2 1 2-5 11-25 10-25 12-26 5-4h8l6 3 5 6 1 5-4 14-9 20-14 31-17 41-1 3-1 51-1 11-5 8-5 2h-8l-6-4-4-8-1-54-2-10-13-30-11-25-8-20-10-21-1-3v-12l4-6z" fill="#06231E"/>
<path transform="translate(1314,856)" d="m0 0h9l6 4 3 6v176l-4 7-7 3-9-1-5-3-3-6v-175l3-6 5-4z" fill="#03201B"/>
<path transform="translate(1118,212)" d="m0 0 8 2 5 6 1 4v28l-3 7-3 3-3 1h-8l-5-3-4-7v-29l4-8 4-3z" fill="#07241F"/>
</svg>
