<?xml version="1.0" standalone="no"?>
<!DOCTYPE svg PUBLIC "-//W3C//DTD SVG 20010904//EN"
 "http://www.w3.org/TR/2001/REC-SVG-20010904/DTD/svg10.dtd">
<svg version="1.0" xmlns="http://www.w3.org/2000/svg"
 width="318.000000pt" height="159.000000pt" viewBox="0 0 318.000000 159.000000"
 preserveAspectRatio="xMidYMid meet">

<g transform="translate(0.000000,159.000000) scale(0.100000,-0.100000)"
fill="#000000" stroke="none">
<path d="M2211 1528 c-1 -16 -13 -18 -103 -18 -57 0 -160 -3 -230 -7 -120 -6
-127 -7 -126 -27 0 -12 0 -114 -1 -228 l-1 -206 -40 5 c-54 8 -70 -8 -70 -68
0 -37 4 -49 15 -49 8 0 15 -4 15 -10 0 -5 6 -7 13 -5 6 3 26 1 42 -4 17 -5 24
-10 18 -10 -21 -2 -15 -31 6 -31 23 0 40 22 23 28 -7 2 -12 8 -12 14 0 6 6 8
14 5 8 -3 17 1 20 9 3 8 2 13 -3 10 -14 -9 -31 77 -31 156 0 40 3 143 7 229
l6 156 271 7 c149 3 351 9 449 12 l177 7 0 -109 c0 -60 -3 -200 -7 -310 l-6
-201 -429 1 c-252 1 -428 5 -428 10 0 25 -14 -9 -20 -48 l-6 -44 60 5 c42 4
58 2 51 -5 -5 -5 -19 -12 -30 -15 -11 -3 12 -5 52 -6 78 -1 88 5 88 54 l0 30
125 0 c69 0 225 -2 348 -5 207 -5 222 -4 222 13 0 9 -5 17 -10 17 -7 0 -9 45
-6 138 3 75 8 218 11 316 l6 179 -235 -7 c-222 -7 -234 -7 -239 11 -4 16 -5
16 -6 1z"/>
<path d="M13 1393 c9 -2 23 -2 30 0 6 3 -1 5 -18 5 -17 0 -22 -2 -12 -5z"/>
<path d="M88 1383 c6 -2 18 -2 25 0 6 3 1 5 -13 5 -14 0 -19 -2 -12 -5z"/>
<path d="M178 1373 c7 -3 16 -2 19 1 4 3 -2 6 -13 5 -11 0 -14 -3 -6 -6z"/>
<path d="M248 1363 c6 -2 18 -2 25 0 6 3 1 5 -13 5 -14 0 -19 -2 -12 -5z"/>
<path d="M588 1323 c6 -2 18 -2 25 0 6 3 1 5 -13 5 -14 0 -19 -2 -12 -5z"/>
<path d="M863 945 c0 -27 2 -38 4 -22 2 15 2 37 0 50 -2 12 -4 0 -4 -28z"/>
<path d="M1045 940 c-3 -5 1 -10 10 -10 9 0 13 5 10 10 -3 6 -8 10 -10 10 -2
0 -7 -4 -10 -10z"/>
<path d="M2700 940 c0 -9 70 -16 108 -11 8 1 12 -15 12 -54 0 -30 5 -55 10
-55 6 0 10 9 10 21 0 20 3 21 70 14 l70 -7 0 45 0 44 -52 7 c-83 9 -228 7
-228 -4z"/>
<path d="M383 865 c0 -33 2 -45 4 -27 2 18 2 45 0 60 -2 15 -4 0 -4 -33z"/>
<path d="M700 898 c0 -4 14 -6 30 -6 17 1 30 5 30 9 0 5 -13 7 -30 6 -16 -1
-30 -5 -30 -9z"/>
<path d="M920 900 c-13 -8 -12 -10 3 -10 9 0 17 5 17 10 0 12 -1 12 -20 0z"/>
<path d="M980 890 c0 -5 7 -10 15 -10 8 0 15 5 15 10 0 6 -7 10 -15 10 -8 0
-15 -4 -15 -10z"/>
<path d="M1238 853 l-68 -4 0 -34 c0 -40 7 -42 88 -25 45 10 49 13 49 40 0 17
-1 29 -1 28 -1 -1 -31 -3 -68 -5z"/>
<path d="M1437 853 c-17 -16 -5 -29 23 -25 35 5 41 32 7 32 -13 0 -27 -3 -30
-7z"/>
<path d="M1564 825 c3 -8 0 -15 -6 -15 -7 0 -6 -5 2 -15 6 -8 9 -18 6 -24 -3
-5 0 -12 6 -14 10 -4 10 -8 -2 -16 -10 -7 -3 -10 30 -13 l45 -3 -42 -14 c-29
-9 -40 -18 -34 -25 13 -16 9 -45 -5 -39 -6 2 -15 0 -18 -5 -6 -10 362 -28 372
-18 3 3 -29 6 -72 6 -81 0 -131 15 -105 31 12 8 12 10 -1 18 -12 9 -12 11 3
17 9 3 17 14 17 24 0 11 5 22 11 26 6 3 7 9 2 13 -4 3 -14 18 -20 34 -10 21
-10 27 0 28 24 3 -89 17 -142 18 -43 1 -52 -2 -47 -14z"/>
<path d="M1065 813 c-50 -6 -65 -18 -65 -55 0 -25 3 -29 18 -23 9 5 45 13 80
18 59 10 62 12 62 39 0 30 0 30 -95 21z"/>
<path d="M2306 803 c-3 -7 -3 -20 0 -28 3 -8 -1 -36 -9 -62 -9 -26 -19 -72
-22 -101 -7 -52 -7 -54 14 -43 27 15 37 34 56 116 9 38 22 82 30 97 7 15 10
30 5 33 -16 10 -69 1 -74 -12z"/>
<path d="M2700 800 c0 -5 14 -10 31 -10 l31 0 -4 -52 -3 -53 38 -3 37 -3 0 65
0 66 -65 0 c-37 0 -65 -4 -65 -10z"/>
<path d="M2840 801 c0 -6 21 -11 47 -13 l47 -3 -3 -52 c-2 -51 -1 -53 23 -53
25 0 26 2 26 65 l0 65 -70 0 c-38 0 -70 -4 -70 -9z"/>
<path d="M381 784 c0 -11 3 -14 6 -6 3 7 2 16 -1 19 -3 4 -6 -2 -5 -13z"/>
<path d="M2153 703 c-12 -2 -25 -13 -28 -24 -9 -28 -51 -52 -104 -60 l-46 -6
47 -2 c26 0 50 4 53 9 3 6 11 10 16 10 11 0 2 -41 -11 -50 -3 -3 -9 -13 -13
-22 -4 -12 -2 -15 9 -11 9 3 14 -2 14 -16 0 -14 -5 -19 -15 -15 -11 5 -15 -1
-15 -20 0 -14 5 -26 10 -26 6 0 10 -9 10 -20 0 -11 -4 -20 -10 -20 -5 0 -10
-20 -10 -45 0 -25 3 -45 6 -45 14 0 77 56 88 79 7 14 21 62 31 105 9 44 26 99
36 123 10 25 19 49 19 54 0 9 -45 10 -87 2z"/>
<path d="M2722 665 c3 -3 56 -8 119 -10 75 -4 107 -2 94 4 -21 10 -222 15
-213 6z"/>
<path d="M2360 651 c0 -5 7 -12 16 -15 14 -5 15 -4 4 9 -14 17 -20 19 -20 6z"/>
<path d="M1368 643 c12 -2 30 -2 40 0 9 3 -1 5 -23 4 -22 0 -30 -2 -17 -4z"/>
<path d="M3030 641 c0 -17 18 -21 24 -6 3 9 0 15 -9 15 -8 0 -15 -4 -15 -9z"/>
<path d="M3171 624 c0 -11 3 -14 6 -6 3 7 2 16 -1 19 -3 4 -6 -2 -5 -13z"/>
<path d="M815 610 c11 -5 14 -9 7 -9 -15 -1 -48 -31 -34 -31 5 0 9 -24 8 -54
l-2 -54 35 -6 c95 -16 138 -7 132 27 -1 5 3 6 8 3 5 -4 12 -2 16 4 3 5 2 10
-3 10 -12 0 -21 22 -28 69 -3 20 -11 39 -18 43 -6 4 -40 7 -76 7 -45 0 -59 -3
-45 -9z"/>
<path d="M1000 588 c1 -38 33 -94 52 -90 9 2 19 -1 22 -6 3 -5 -8 -12 -25 -16
-25 -5 -29 -9 -20 -20 6 -7 23 -12 37 -10 13 1 38 -1 54 -6 27 -8 46 -4 132
26 10 4 15 10 12 15 -5 9 9 13 34 10 7 -1 44 10 82 24 38 15 74 24 79 21 10
-7 24 10 27 31 3 19 -1 20 -127 28 -112 7 -116 6 -122 -14 -6 -25 -35 -28 -44
-3 -11 28 -24 32 -110 32 -80 0 -83 -1 -83 -22z m460 -17 c0 -6 -4 -13 -10
-16 -5 -3 -10 1 -10 9 0 9 5 16 10 16 6 0 10 -4 10 -9z m-180 -21 c0 -5 -7
-10 -15 -10 -8 0 -15 5 -15 10 0 6 7 10 15 10 8 0 15 -4 15 -10z m45 3 c-11
-3 -23 -10 -27 -17 -5 -7 -8 -7 -8 0 0 16 11 24 34 23 20 -1 20 -1 1 -6z
m-125 -13 c0 -5 -4 -10 -10 -10 -5 0 -10 5 -10 10 0 6 5 10 10 10 6 0 10 -4
10 -10z m-75 -50 c-3 -5 -12 -10 -18 -10 -7 0 -6 4 3 10 19 12 23 12 15 0z
m115 1 c0 -10 -30 -25 -44 -22 -5 1 -13 -4 -18 -11 -6 -9 -8 -7 -6 7 2 11 10
23 18 27 22 10 50 9 50 -1z"/>
<path d="M1917 529 c-9 -6 -14 -15 -11 -21 4 -6 3 -8 -4 -5 -12 8 -42 -1 -42
-12 0 -4 23 -8 52 -10 28 -1 55 -4 60 -7 4 -3 8 11 8 30 0 31 -3 36 -22 36
-13 0 -31 -5 -41 -11z"/>
<path d="M1733 421 c-29 -20 -52 -41 -53 -48 0 -6 -6 -14 -12 -16 -7 -3 19 -6
59 -6 65 -1 72 -3 66 -18 -6 -16 -5 -16 10 -4 13 11 36 12 97 7 l80 -6 0 50
c0 29 -6 57 -12 63 -8 7 -49 13 -98 13 -83 2 -86 1 -137 -35z"/>
<path d="M836 391 c-4 -5 3 -7 14 -4 23 6 26 13 6 13 -8 0 -17 -4 -20 -9z"/>
<path d="M1020 390 c0 -5 7 -7 15 -4 8 4 15 8 15 10 0 2 -7 4 -15 4 -8 0 -15
-4 -15 -10z"/>
<path d="M1031 324 c0 -11 3 -14 6 -6 3 7 2 16 -1 19 -3 4 -6 -2 -5 -13z"/>
<path d="M1277 326 c-4 -10 -3 -15 3 -11 6 3 10 -2 11 -12 0 -10 3 -13 5 -6 3
7 1 20 -4 29 -8 15 -9 15 -15 0z"/>
<path d="M1600 311 c0 -5 -8 -11 -17 -13 -15 -3 -14 -5 5 -10 17 -5 22 -2 22
13 0 10 -2 19 -5 19 -3 0 -5 -4 -5 -9z"/>
<path d="M2073 313 c9 -2 23 -2 30 0 6 3 -1 5 -18 5 -16 0 -22 -2 -12 -5z"/>
<path d="M2135 310 c27 -12 43 -12 25 0 -8 5 -22 9 -30 9 -10 0 -8 -3 5 -9z"/>
<path d="M2250 310 c-13 -8 -12 -10 3 -10 9 0 17 5 17 10 0 12 -1 12 -20 0z"/>
<path d="M2280 306 c0 -9 40 -13 46 -5 3 5 -6 9 -20 9 -14 0 -26 -2 -26 -4z"/>
<path d="M2348 293 c6 -2 18 -2 25 0 6 3 1 5 -13 5 -14 0 -19 -2 -12 -5z"/>
<path d="M1965 250 c3 -5 8 -10 11 -10 2 0 4 5 4 10 0 6 -5 10 -11 10 -5 0 -7
-4 -4 -10z"/>
<path d="M2086 242 c-3 -5 8 -6 25 -4 16 2 29 6 29 8 0 8 -49 4 -54 -4z"/>
<path d="M2268 242 c-47 -6 -31 -17 27 -19 34 -2 55 2 55 8 0 7 -11 9 -25 7
-13 -3 -26 -2 -27 1 -2 3 -15 5 -30 3z"/>
<path d="M1450 210 c0 -5 5 -10 10 -10 6 0 10 5 10 10 0 6 -4 10 -10 10 -5 0
-10 -4 -10 -10z"/>
<path d="M1905 190 c-8 -12 17 -23 41 -18 14 2 12 6 -9 15 -16 8 -29 9 -32 3z"/>
<path d="M1971 174 c0 -11 3 -14 6 -6 3 7 2 16 -1 19 -3 4 -6 -2 -5 -13z"/>
<path d="M2195 170 c-7 -11 18 -24 35 -18 6 2 1 9 -9 15 -13 8 -22 9 -26 3z"/>
<path d="M2128 158 c5 -5 19 -4 33 1 23 10 22 10 -8 8 -18 0 -29 -5 -25 -9z"/>
<path d="M2257 153 c-3 -5 10 -9 28 -10 19 -2 37 2 40 7 4 6 -8 10 -29 10 -19
0 -37 -3 -39 -7z"/>
<path d="M1330 141 c0 -5 -8 -12 -17 -14 -14 -4 -12 -5 5 -6 13 -1 22 5 22 14
0 8 -2 15 -5 15 -3 0 -5 -4 -5 -9z"/>
<path d="M1270 90 l-25 -8 28 -1 c15 -1 27 4 27 9 0 6 -1 10 -2 9 -2 -1 -14
-5 -28 -9z"/>
<path d="M1810 90 c0 -5 12 -10 28 -9 24 0 25 1 7 9 -27 12 -35 12 -35 0z"/>
<path d="M1918 73 c7 -3 16 -2 19 1 4 3 -2 6 -13 5 -11 0 -14 -3 -6 -6z"/>
<path d="M2165 60 c26 -11 68 -12 61 -2 -3 5 -22 9 -43 10 -29 0 -33 -2 -18
-8z"/>
<path d="M2253 63 c-18 -6 -16 -23 1 -23 17 0 30 16 19 23 -5 2 -14 2 -20 0z"/>
<path d="M1760 50 c0 -6 7 -10 15 -10 8 0 15 2 15 4 0 2 -7 6 -15 10 -8 3 -15
1 -15 -4z"/>
<path d="M2175 9 c7 -11 65 -12 65 -1 0 4 -16 8 -35 9 -20 1 -33 -3 -30 -8z"/>
</g>
</svg>
